<svg width="18" height="31" viewBox="0 0 18 31" fill="none" xmlns="http://www.w3.org/2000/svg">
<path d="M17.6272 14.4551L2.20841 0.401531C1.94072 0.133843 1.6329 0 1.2849 0C0.936904 0 0.629066 0.133843 0.361377 0.401531C0.120458 0.642449 0 0.943596 0 1.30497C0 1.66636 0.120458 1.9675 0.361377 2.20841L14.8567 15.4188L0.361377 28.6291C0.120458 28.87 0 29.1712 0 29.5325C0 29.8939 0.120458 30.1951 0.361377 30.436C0.629066 30.7037 0.936904 30.8375 1.2849 30.8375C1.6329 30.8375 1.94072 30.7037 2.20841 30.436L17.6272 16.3824C17.7611 16.2486 17.8614 16.1013 17.9283 15.9407C17.9952 15.7801 18.0153 15.6062 17.9886 15.4188C18.0153 15.2314 17.9952 15.0575 17.9283 14.8968C17.8614 14.7362 17.7611 14.5889 17.6272 14.4551Z" fill="#0E2D68"/>
</svg>
