<svg width="18" height="31" viewBox="0 0 18 31" fill="none" xmlns="http://www.w3.org/2000/svg">
<path d="M3.13392 15.4286L17.5982 2.20982C17.8661 1.96874 18 1.66741 18 1.3058C18 0.944196 17.8661 0.642858 17.5982 0.401786C17.3571 0.133928 17.0558 0 16.6942 0C16.3326 0 16.0312 0.133928 15.7902 0.401786L0.361608 14.4642C0.227678 14.5983 0.133929 14.7456 0.0803568 14.9062C0.0267859 15.067 0 15.241 0 15.4286C0 15.6161 0.0267859 15.7902 0.0803568 15.9509C0.133929 16.1117 0.227678 16.259 0.361608 16.3929L15.7902 30.4553C16.0312 30.7232 16.3326 30.8571 16.6942 30.8571C17.0558 30.8571 17.3571 30.7232 17.5982 30.4553C17.8661 30.2142 18 29.913 18 29.5513C18 29.1898 17.8661 28.8883 17.5982 28.6473L3.13392 15.4286Z" fill="#0E2D68"/>
</svg>
